<svg xmlns="http://www.w3.org/2000/svg" width="18" height="19" viewBox="0 0 18 19">
    <g fill="none" fill-rule="evenodd">
        <g fill="#565656" fill-rule="nonzero">
            <g>
                <g>
                    <g>
                        <path d="M17.688 11.582l-1.699-1.366c.022-.21.04-.456.04-.717 0-.26-.017-.506-.04-.717l1.701-1.366c.316-.257.402-.712.201-1.091l-1.767-3.143c-.189-.354-.602-.536-1.022-.377l-2.005.827c-.384-.285-.787-.526-1.203-.718L11.589.728C11.539.314 11.187 0 10.772 0H7.23c-.415 0-.765.314-.815.722L6.11 2.916c-.404.187-.8.424-1.202.718l-2.01-.83c-.377-.15-.827.018-1.014.371L.113 6.321c-.208.363-.122.834.2 1.097l1.7 1.366c-.027.266-.04.498-.04.716 0 .218.013.45.04.717l-1.7 1.367c-.317.257-.402.712-.201 1.09l1.767 3.143c.188.354.598.537 1.022.377l2.005-.827c.383.284.786.525 1.203.718l.305 2.185c.05.416.4.73.816.73h3.543c.415 0 .766-.314.816-.722l.305-2.193c.404-.188.8-.424 1.202-.719l2.01.83c.097.039.198.058.302.058.299 0 .574-.167.712-.429l1.775-3.158c.197-.37.11-.826-.207-1.085zm-8.687 1.085c-1.7 0-3.081-1.42-3.081-3.167 0-1.746 1.382-3.167 3.08-3.167 1.7 0 3.081 1.42 3.081 3.167 0 1.746-1.381 3.167-3.08 3.167z" transform="translate(-1284 -184) translate(1272 102.466) translate(12 71.822) translate(0 9.712)"/>
                    </g>
                </g>
            </g>
        </g>
    </g>
</svg>
