<svg xmlns="http://www.w3.org/2000/svg" width="14" height="16" viewBox="0 0 14 16">
    <g fill="none" fill-rule="evenodd">
        <g>
            <g>
                <g>
                    <path fill="#565656" d="M4 14.436c0-1.748 1.104-2.85 2.857-2.85 1.753 0 2.857 1.102 2.857 2.85H4zm2.857-7.598c1.052 0 1.905.85 1.905 1.9 0 1.049-.853 1.899-1.905 1.899s-1.905-.85-1.905-1.9c0-1.049.853-1.899 1.905-1.899zM12.19 2.28h-.761v2.28H2.286v-2.28h-.762C.683 2.28 0 2.96 0 3.8v10.637c0 .839.683 1.52 1.524 1.52H12.19c.842 0 1.524-.681 1.524-1.52V3.799c0-.839-.682-1.52-1.524-1.52z" transform="translate(-1286 -156) translate(1272 102.466) translate(14 53.534)"/>
                    <path fill="#F7F7F7" d="M8.381 1.52C8.381.68 7.698 0 6.857 0S5.333.68 5.333 1.52H3.81v2.279h6.095v-2.28H8.38z" transform="translate(-1286 -156) translate(1272 102.466) translate(14 53.534)"/>
                </g>
            </g>
        </g>
    </g>
</svg>
