<svg xmlns="http://www.w3.org/2000/svg" width="16" height="16" viewBox="0 0 16 16">
    <g fill="none" fill-rule="evenodd">
        <g fill="#565656">
            <g>
                <path d="M546.634 25.793c-2.85 0-5.16-2.31-5.16-5.16 0-2.849 2.31-5.159 5.16-5.159s5.16 2.31 5.16 5.16-2.31 5.16-5.16 5.16zm5.18-1.022c.907-1.134 1.454-2.57 1.454-4.137 0-3.664-2.97-6.634-6.634-6.634S540 16.97 540 20.634s2.97 6.634 6.634 6.634c1.566 0 3.003-.547 4.138-1.455L554.958 30 556 28.957l-4.186-4.186z" transform="translate(-795 -23) translate(255 9)"/>
            </g>
        </g>
    </g>
</svg>
