<svg xmlns="http://www.w3.org/2000/svg" width="22" height="26" viewBox="0 0 22 26">
    <g fill="none" fill-rule="evenodd">
        <g fill="#565656" fill-rule="nonzero">
            <g>
                <g>
                    <g>
                        <path d="M21.921 22.178l-1.89-3.107c-.87-1.434-1.331-3.076-1.331-4.75V11.6C18.7 7.41 15.245 4 11 4s-7.7 3.41-7.7 7.6v2.722c0 1.673-.46 3.315-1.332 4.749l-1.89 3.107c-.102.167-.104.377-.007.546.098.17.281.276.48.276H21.45c.198 0 .381-.105.48-.276.096-.17.094-.379-.009-.546zm-20.4-.264l1.39-2.285c.975-1.603 1.49-3.438 1.49-5.307V11.6C4.4 8.007 7.36 5.086 11 5.086c3.64 0 6.6 2.921 6.6 6.514v2.722c0 1.87.515 3.704 1.488 5.307l1.39 2.285H1.522zM11.5 0C10.121 0 9 .797 9 1.778v1.778C9 3.8 9.28 4 9.625 4s.625-.2.625-.444V1.778c0-.49.56-.89 1.25-.89s1.25.4 1.25.89v1.778c0 .245.28.444.625.444S14 3.8 14 3.556V1.778C14 .798 12.879 0 11.5 0z" transform="translate(-1007 -65) translate(0 50) translate(856 15) translate(151)"/>
                        <path d="M13.595 22.246c-.17-.238-.535-.316-.822-.179-.287.14-.383.447-.215.685.156.222.241.487.241.748 0 .827-.807 1.5-1.799 1.5-.992 0-1.8-.673-1.8-1.5 0-.261.086-.526.242-.748.167-.239.07-.545-.215-.685-.289-.137-.654-.059-.822.18-.265.377-.405.81-.405 1.253 0 1.379 1.345 2.5 2.999 2.5 1.654 0 2.999-1.121 3.001-2.5 0-.442-.14-.876-.405-1.254z" transform="translate(-1007 -65) translate(0 50) translate(856 15) translate(151)"/>
                    </g>
                </g>
            </g>
        </g>
    </g>
</svg>
