<svg xmlns="http://www.w3.org/2000/svg" width="16" height="16" viewBox="0 0 16 16">
    <g fill="none" fill-rule="evenodd">
        <g fill="#3C3C3C">
            <g>
                <g>
                    <g>
                        <path d="M12.8 7.6H6.4V6h6.4v1.6zm0 3.2H6.4V9.2h6.4v1.6zM4 7.8c-.552 0-1-.448-1-1s.448-1 1-1 1 .448 1 1-.448 1-1 1zM4 11c-.552 0-1-.448-1-1s.448-1 1-1 1 .448 1 1-.448 1-1 1zm10.4-9H1.6C.718 2 0 2.718 0 3.6v9.6c0 .882.718 1.6 1.6 1.6h1.6V18l4.266-3.2H14.4c.882 0 1.6-.718 1.6-1.6V3.6c0-.882-.718-1.6-1.6-1.6z" transform="translate(-856 -73) translate(0 50) translate(856 15) translate(0 6)"/>
                    </g>
                </g>
            </g>
        </g>
    </g>
</svg>
