<svg xmlns="http://www.w3.org/2000/svg" width="16" height="16" viewBox="0 0 16 16">
    <g fill="none" fill-rule="evenodd">
        <g fill="#FFF">
            <g>
                <g>
                    <path d="M12.16 15.515c0 .353-.286.638-.64.638-.354 0-.64-.285-.64-.638 0-.353.286-.639.64-.639.354 0 .64.286.64.639zm0 3.829h-1.28v-2.553h1.28v2.553zM3.2 17.11c1.059 0 1.92.859 1.92 1.915 0 .758-.447 1.408-1.09 1.718 1.361.368 2.37 1.597 2.37 3.069v1.276c0 .353-.287.638-.64.638h-.64v1.915c0 .352-.287.638-.64.638H1.92c-.353 0-.64-.286-.64-.638v-1.915H.64c-.353 0-.64-.285-.64-.638v-1.276c0-1.472 1.01-2.701 2.37-3.069-.643-.31-1.09-.96-1.09-1.718 0-1.056.861-1.915 1.92-1.915zm5.76 4.149c1.059 0 1.92.859 1.92 1.914 0 .637-.317 1.198-.797 1.547.848.416 1.437 1.279 1.437 2.283v.638c0 .352-.287.638-.64.638H7.04c-.353 0-.64-.286-.64-.638v-.638c0-1.004.59-1.867 1.437-2.283-.48-.349-.797-.91-.797-1.547 0-1.055.861-1.914 1.92-1.914zm2.56-8.298c2.117 0 3.84 1.719 3.84 3.83 0 2.111-1.723 3.829-3.84 3.829-2.118 0-3.84-1.718-3.84-3.83 0-2.11 1.722-3.829 3.84-3.829z" transform="translate(-43 -324) translate(10 114) translate(33 197.336)"/>
                </g>
            </g>
        </g>
    </g>
</svg>
