<svg xmlns="http://www.w3.org/2000/svg" width="17" height="17" viewBox="0 0 17 17">
    <g fill="none" fill-rule="evenodd">
        <g fill="#FFF">
            <g>
                <g>
                    <path d="M14.476 21.081H11.43v-3.039h3.047v3.04zm-4.571 0H6.857v-3.039h3.048v3.04zm0 4.56H6.857V22.6h3.048v3.04zm-4.572-4.56H2.286v-3.039h3.047v3.04zm0 4.56H2.286V22.6h3.047v3.04zm9.905-12.158h-1.524v-1.52H12.19v3.8h-1.523v-2.28H6.095v-1.52H4.571v3.8H3.048v-2.28H1.524c-.84 0-1.524.683-1.524 1.52V26.4c0 .838.683 1.52 1.524 1.52h13.714c.84 0 1.524-.682 1.524-1.52V15.003c0-.837-.684-1.52-1.524-1.52z" transform="translate(-42 -283) translate(10 114) translate(32 157.447)"/>
                </g>
            </g>
        </g>
    </g>
</svg>
