<svg xmlns="http://www.w3.org/2000/svg" width="16" height="16" viewBox="0 0 16 16">
    <g fill="none" fill-rule="evenodd">
        <g fill="#FFF">
            <g>
                <g>
                    <path d="M2 21.664c.368 0 .667.298.667.666v4.667c0 .368-.299.667-.667.667H.667c-.368 0-.667-.299-.667-.667V22.33c0-.368.299-.666.667-.666zm3.753.047c.247-.098.53-.04.718.148l.667.667c.26.26.26.682 0 .943l-.195.195h5.724c.269 0 .512.162.616.411.103.25.046.536-.145.727l-2 2c-.125.125-.295.195-.471.195H3.333V22.68zm4.914-10.047c.272 0 .517.166.619.419l1.165 2.914h2.882c.28 0 .53.175.626.438.096.263.018.558-.196.738l-2.504 2.115 1.352 3.11c.118.27.044.587-.182.776-.124.104-.276.157-.429.157-.127 0-.256-.037-.367-.111l-2.966-1.96-2.452 1.62-1.186-1.187 1.046-2.405-2.505-2.115c-.214-.18-.293-.475-.196-.738.096-.263.346-.438.626-.438h2.882l1.165-2.914c.102-.253.347-.42.62-.42z" transform="translate(-44 -363) translate(10 114) translate(34 237.336)"/>
                </g>
            </g>
        </g>
    </g>
</svg>
