<svg xmlns="http://www.w3.org/2000/svg" width="16" height="17" viewBox="0 0 16 17">
    <g fill="none" fill-rule="evenodd">
        <g fill="#FFF">
            <g>
                <g>
                    <g>
                        <path d="M4.798 6.984c.765-.369 1.297-1.143 1.297-2.045 0-1.258-1.025-2.28-2.285-2.28-1.26 0-2.286 1.022-2.286 2.28 0 .902.532 1.676 1.297 2.045C1.2 7.422 0 8.885 0 10.637v1.52c0 .42.341.76.762.76h.762v2.28c0 .418.341.759.762.759h3.047c.42 0 .762-.34.762-.76v-2.28h.762c.42 0 .762-.34.762-.76v-1.519c0-1.752-1.2-3.215-2.82-3.653M12.003 11.718c.572-.415.95-1.083.95-1.84 0-1.258-1.026-2.28-2.286-2.28S8.38 8.62 8.38 9.878c0 .757.377 1.425.95 1.84-1.01.496-1.712 1.523-1.712 2.718v.76c0 .42.341.76.762.76h4.571c.421 0 .762-.34.762-.76v-.76c0-1.195-.701-2.222-1.711-2.718M16 2.279L13.714 2.279 13.714 0 12.191 0 12.191 2.279 9.905 2.279 9.905 3.799 12.191 3.799 12.191 6.078 13.714 6.078 13.714 3.799 16 3.799z" transform="translate(-43 -243) translate(10 114) translate(33 117.558) translate(0 11.964)"/>
                    </g>
                </g>
            </g>
        </g>
    </g>
</svg>
